<svg width="184" height="33" viewBox="0 0 184 33" fill="none" xmlns="http://www.w3.org/2000/svg">
<path fill-rule="evenodd" clip-rule="evenodd" d="M172.55 18.4665C172.96 16.8126 174.188 15.9092 175.739 15.9092C177.364 15.9092 178.393 16.9271 178.753 18.4665H172.55ZM175.59 13.2627C172.141 13.2627 169.548 15.909 169.548 19.8024C169.548 23.772 172.277 26.3672 175.887 26.3672C178.319 26.3672 180.056 25.3498 181.11 23.9628L179.126 22.2197C178.493 23.0339 177.475 23.7209 176.036 23.7209C174.212 23.7209 172.873 22.6267 172.501 20.8203H181.532C181.57 20.5911 181.607 20.1078 181.607 19.6626V19.6624C181.607 15.9598 179.25 13.2627 175.59 13.2627ZM164 23.7207C161.817 23.7207 160.316 22.1433 160.316 19.8024C160.316 17.4868 161.792 15.909 163.988 15.909C165.34 15.909 166.407 16.4941 167.115 17.347L169.05 15.6291C167.809 14.0645 165.775 13.2627 163.839 13.2627C160.08 13.2627 157.425 15.9347 157.425 19.8277C157.425 23.7207 160.093 26.3672 163.74 26.3672C166.134 26.3672 168.032 25.375 169.099 24.1281L167.139 22.3471C166.481 23.0976 165.377 23.7207 164 23.7207ZM155.117 7.68983C154.038 7.68983 153.194 8.56771 153.194 9.62379C153.194 10.6923 154.038 11.5577 155.117 11.5577C156.16 11.5577 157.028 10.6923 157.028 9.62379C157.028 8.56771 156.16 7.68983 155.117 7.68983ZM153.678 26.1637H156.519V13.4538H153.678V26.1637ZM146.332 22.5124H146.282L143.044 13.4535H140.005L144.942 26.1637H147.659L152.572 13.4535H149.508L146.332 22.5124ZM138.778 13.2627C137.264 13.2627 135.887 14.0134 134.919 15.3617H134.882V13.4533H132.041V26.1637H134.882V20.1328C134.882 18.072 136.11 16.4815 138.269 16.4815C138.467 16.4815 138.802 16.4939 139.125 16.5194V13.2751C139.026 13.2622 138.902 13.2622 138.778 13.2622V13.2627ZM122.036 18.4665C122.446 16.8126 123.674 15.9092 125.225 15.9092H125.225C126.85 15.9092 127.88 16.9271 128.24 18.4665H122.036ZM125.076 13.2627C121.627 13.2627 119.034 15.909 119.034 19.8024C119.034 23.772 121.763 26.3672 125.373 26.3672C127.805 26.3672 129.542 25.3498 130.596 23.9628L128.611 22.2197C127.979 23.0339 126.961 23.7209 125.522 23.7209C123.699 23.7209 122.359 22.6267 121.987 20.8203H131.018C131.055 20.5911 131.093 20.1078 131.093 19.6626V19.6624C131.093 15.9598 128.736 13.2627 125.076 13.2627ZM112.326 15.1454C110.142 14.2801 108.926 13.8097 108.951 12.4609C108.976 11.0866 110.08 10.2979 111.47 10.2979C112.71 10.2979 114.149 10.9342 115.626 12.1937L117.449 9.72542C115.626 8.24948 113.603 7.4353 111.469 7.4477C108.356 7.46058 105.775 9.71254 105.775 12.6262C105.775 15.9977 108.492 17.2573 111.222 18.2497C113.504 19.0767 114.707 19.5982 114.707 21.2015C114.707 22.5756 113.69 23.4661 111.705 23.4661C110.167 23.4661 108.393 22.652 107.078 21.0233L105.142 23.4661C107.04 25.4636 109.385 26.3667 111.693 26.3667L111.693 26.3672C114.571 26.3672 117.909 24.6498 117.909 20.833C117.909 17.2578 115.415 16.3799 112.326 15.1454ZM102.803 9.47136C103.336 9.47136 104.043 9.71325 104.875 10.1202L105.507 7.6519C104.85 7.23205 103.783 6.77402 102.393 6.77402C99.9614 6.77402 98.6466 8.28813 98.6466 11.1255V13.4535H97.2571V15.9347H98.6466V26.1637H101.488V15.9347H104.539V13.4535H101.488V11.4432C101.488 10.0565 101.947 9.47136 102.803 9.47136ZM87.7971 23.428V23.4282C84.2738 23.4282 81.8545 20.5276 81.8545 16.9014C81.8545 13.2877 84.2738 10.3872 87.7971 10.3872C91.1343 10.3872 93.7023 13.1098 93.7023 16.9011C93.7023 20.6925 91.1343 23.428 87.7971 23.428ZM87.7971 7.44817C82.3756 7.44817 78.6659 11.4688 78.6659 16.9014C78.6659 22.3471 82.3756 26.3672 87.7971 26.3672C93.0078 26.3672 96.8909 22.5506 96.8909 16.9014C96.8909 11.2526 93.0078 7.44817 87.7971 7.44817ZM77.2534 13.2627C75.7399 13.2627 74.3627 14.0134 73.3948 15.3617H73.3578V13.4533H70.5169V26.1637H73.3578V20.1328C73.3578 18.072 74.586 16.4815 76.7445 16.4815C76.9432 16.4815 77.2781 16.4939 77.6008 16.5194V13.2751C77.5014 13.2622 77.3774 13.2622 77.2534 13.2622V13.2627ZM63.0895 23.7209C60.9929 23.7209 59.5289 22.1307 59.5289 19.8788C59.5289 17.436 61.1169 15.9092 63.1021 15.9092C65.1366 15.9092 66.6126 17.6266 66.6126 19.8788C66.6126 22.1815 65.0125 23.7209 63.0895 23.7209ZM66.5014 14.9805H66.4514C65.5209 13.8481 64.1938 13.2627 62.6179 13.2627C59.2062 13.2627 56.6382 16.0237 56.6382 19.8661C56.6382 23.7975 59.2062 26.3672 62.643 26.3672C64.355 26.3672 65.6824 25.6804 66.5882 24.4592H66.6252V26.1639H69.3423V13.4535H66.5014V14.9805ZM53.9013 23.6448C53.1075 23.6448 52.71 23.1739 52.71 21.8762V15.9347H56.3579V13.4535H52.71V8.91171L49.8694 9.22946V13.4535H48.3558V15.9347H49.8694V22.1434C49.8694 24.9807 51.1968 26.3672 53.3308 26.3672C54.9558 26.3672 55.7373 26.0239 56.4817 25.6169L55.7373 23.0976C55.0798 23.4537 54.385 23.6448 53.9013 23.6448ZM42.9011 15.1454C40.7177 14.2801 39.5015 13.8097 39.5264 12.4609C39.5513 11.0866 40.6553 10.2979 42.0449 10.2979C43.2855 10.2979 44.7245 10.9342 46.2011 12.1937L48.0245 9.72542C46.2011 8.24948 44.1787 7.4353 42.0446 7.4477C38.9305 7.46058 36.3502 9.71254 36.3502 12.6262C36.3502 15.9977 39.0671 17.2573 41.7966 18.2497C44.0793 19.0767 45.2827 19.5982 45.2827 21.2015C45.2827 22.5756 44.2655 23.4661 42.2806 23.4661C40.7419 23.4661 38.968 22.652 37.653 21.0233L35.7176 23.4661C37.6157 25.4636 39.9604 26.3667 42.268 26.3667L42.2685 26.3672C45.1468 26.3672 48.4838 24.6498 48.4838 20.833C48.4838 17.2578 45.9905 16.3799 42.9011 15.1454Z" fill="#4A87F8"/>
<path fill-rule="evenodd" clip-rule="evenodd" d="M29.8309 16.7446C29.1692 17.249 26.4702 17.4583 24.5092 17.5451C25.0632 16.3967 25.5427 15.2846 25.8976 14.3313C26.1876 13.5532 26.45 12.8232 26.6898 12.1338C28.7056 14.1963 30.4287 16.2887 29.8309 16.7446ZM18.6053 23.1918C17.2873 22.9429 15.9599 16.3 15.9599 16.3C15.9599 16.3 9.29736 15.4611 8.88052 14.242C8.50841 13.1537 15.0026 8.75503 17.8251 7.22572C23.5918 4.10133 26.1146 2.89235 26.7368 3.48022C27.3587 4.06762 26.4973 7.17009 24.1387 13.5136C22.9843 16.6185 19.8856 23.4334 18.6053 23.1918ZM14.3522 2.56917C14.8028 2.30399 16.0407 3.04484 18.1416 4.67504C17.6475 4.93385 17.1325 5.20917 16.5915 5.50452C15.8757 5.89604 15.065 6.38892 14.2237 6.94544C13.8989 4.28423 13.9014 2.83458 14.3522 2.56917ZM27.4353 9.88292C29.1422 4.4259 28.9676 2.35869 28.2711 1.69798C27.5624 1.02596 25.5351 1.07334 20.3722 3.55282C15.8927 0.143444 13.9448 -0.325627 13.1242 0.162537C12.307 0.649287 11.7289 2.61114 12.3405 8.26357C9.14824 10.6242 6.17507 13.5 6.74791 14.951C7.58618 17.075 14.0928 18.285 14.0928 18.285C14.0928 18.285 15.9152 24.9748 18.0084 25.631C18.2206 25.6975 18.455 25.6753 18.7053 25.5836C20.8907 25.1636 23.8682 19.3518 23.8682 19.3518C23.8682 19.3518 30.5319 19.6113 31.777 17.7381C32.6416 16.4374 30.178 12.9055 27.4353 9.88292ZM10.8803 23.7927C10.3276 24.3867 3.91283 30.4834 3.53155 30.7974C3.23194 31.0444 2.83987 31.0916 2.5772 30.8082C2.31452 30.5251 2.3783 30.1136 2.58064 29.772C2.75155 29.4826 8.34071 22.2808 8.89313 21.6873C9.44579 21.0935 10.3384 21.0836 10.8872 21.6649C11.4357 22.2464 11.4327 23.1991 10.8803 23.7927ZM7.36365 20.0976C6.05325 21.7867 2.03418 27.4726 1.20188 28.6126C0.367736 29.7548 0.224353 31.2705 1.18834 32.2692C2.15256 33.2684 3.62378 33.1409 4.69307 32.2298C5.91927 31.1856 10.8874 26.7968 12.4066 25.3227C13.8654 23.9068 13.8184 21.4836 12.4256 20.0406C11.0331 18.5978 8.61486 18.4846 7.36365 20.0976Z" fill="#4A87F8"/>
</svg>
